<?xml version="1.0" standalone="no"?>
<!DOCTYPE svg PUBLIC "-//W3C//DTD SVG 20010904//EN"
 "http://www.w3.org/TR/2001/REC-SVG-20010904/DTD/svg10.dtd">
<svg version="1.0" xmlns="http://www.w3.org/2000/svg"
 width="512.000000pt" height="512.000000pt" viewBox="0 0 512.000000 512.000000"
 preserveAspectRatio="xMidYMid meet">

<g transform="translate(0.000000,512.000000) scale(0.100000,-0.100000)"
fill="#000000" stroke="none">
<path d="M2483 4754 c-325 -71 -568 -317 -818 -829 -136 -281 -285 -647 -285
-704 0 -65 52 -151 162 -266 57 -60 97 -110 92 -114 -5 -5 -97 -68 -204 -141
-213 -145 -269 -193 -318 -273 -33 -55 -274 -662 -314 -790 -32 -103 -30 -237
4 -329 33 -89 78 -161 155 -250 l63 -73 -274 -5 c-202 -4 -277 -8 -289 -18
-38 -32 -27 -110 19 -131 17 -7 132 -11 359 -11 l333 0 46 -52 46 -53 0 -108
c0 -112 12 -158 45 -171 9 -3 574 -6 1255 -6 1431 0 1279 -13 1291 111 4 41 8
98 8 127 1 48 5 59 42 100 l41 47 340 5 340 5 19 24 c26 32 24 77 -6 106 l-24
25 -261 0 -260 0 74 86 c153 178 205 353 162 539 -17 71 -276 739 -313 807
-46 84 -113 143 -328 289 -115 78 -211 143 -213 144 -2 2 20 25 49 51 68 65
168 189 190 239 34 73 26 122 -48 305 -339 842 -610 1203 -975 1299 -107 28
-136 30 -205 15z m168 -170 c176 -51 333 -185 474 -404 52 -80 155 -263 155
-276 0 -5 -150 141 -333 324 -278 278 -338 333 -358 330 -16 -2 -25 -11 -27
-27 -3 -20 65 -93 412 -440 384 -385 417 -421 444 -482 41 -91 46 -109 30
-109 -7 0 -198 185 -424 411 -342 342 -415 410 -435 407 -16 -2 -25 -11 -27
-27 -3 -20 55 -83 345 -374 312 -313 344 -349 313 -343 -19 4 -53 9 -75 12
-36 6 -63 30 -286 251 -203 202 -250 244 -270 241 -16 -2 -25 -11 -27 -27 -3
-20 33 -61 200 -229 l203 -204 -70 6 -70 7 -106 105 c-85 84 -111 105 -130
102 -16 -2 -25 -11 -27 -27 -3 -18 13 -40 68 -96 l71 -72 -213 -6 c-313 -9
-564 -46 -759 -112 -40 -14 -74 -24 -75 -22 -5 5 92 222 173 386 116 232 222
392 337 506 99 98 174 148 275 182 78 27 138 29 212 7z m442 -1205 c12 -7 25
-16 28 -22 15 -23 -88 -351 -147 -468 -42 -83 -145 -149 -305 -195 -88 -25
-98 -26 -163 -15 -89 15 -184 53 -268 107 -56 36 -72 53 -96 101 -43 85 -96
233 -128 357 l-28 109 23 18 c22 18 51 19 543 19 372 0 526 -3 541 -11z m638
-1070 c21 -21 21 -28 15 -163 -3 -77 -13 -370 -21 -651 -9 -280 -18 -543 -21
-582 l-6 -73 -1144 0 -1144 0 0 48 c0 26 -9 304 -20 617 -11 314 -20 620 -20
682 0 104 1 113 22 127 20 14 148 16 1170 16 l1148 0 21 -21z m-31 -1658 c0
-67 104 -61 -1146 -61 l-1134 0 0 45 0 45 1140 0 1140 0 0 -29z"/>
<path d="M2570 3202 c0 -60 3 -117 6 -126 4 -12 20 -16 55 -16 27 0 49 5 49
10 0 10 -98 231 -106 239 -2 2 -4 -46 -4 -107z"/>
<path d="M2465 2090 c-106 -22 -179 -64 -258 -149 -136 -146 -152 -381 -38
-551 28 -42 28 -43 10 -61 -25 -25 -25 -89 0 -120 16 -19 30 -24 90 -27 l71
-4 0 -37 c0 -20 3 -53 6 -73 l7 -38 192 0 c220 0 205 -7 205 96 l0 52 69 4
c87 5 111 23 111 82 0 23 -7 52 -16 64 -15 22 -14 26 10 63 72 109 95 254 57
377 -68 225 -295 367 -516 322z m-120 -475 c33 -8 80 -18 105 -22 42 -8 45
-10 42 -38 -11 -94 -113 -146 -200 -101 -57 29 -85 101 -63 160 9 23 16 27 34
22 12 -4 49 -13 82 -21z m515 6 c34 -65 -13 -159 -91 -181 -75 -22 -169 42
-169 115 0 33 1 34 48 40 26 4 79 15 117 25 39 10 73 18 77 19 4 1 12 -8 18
-18z m-338 -285 c-4 -52 -18 -76 -42 -76 -21 0 -24 8 -20 49 4 49 19 73 43 69
19 -3 22 -8 19 -42z m108 24 c6 -11 12 -37 13 -57 2 -34 0 -38 -23 -38 -21 0
-26 6 -34 42 -5 23 -6 49 -3 57 9 22 34 20 47 -4z"/>
</g>
</svg>
